<mxfile host="app.diagrams.net" modified="2023-02-06T19:53:36.520Z" agent="5.0 (Windows NT 10.0; Win64; x64) AppleWebKit/537.36 (KHTML, like Gecko) Chrome/109.0.0.0 Safari/537.36" etag="MjEz_RKwKfOn0smYA-Gj" version="20.8.16" type="github">
  <diagram name="Page-1" id="Skxts6fUJfYG_hWw177g">
    <mxGraphModel dx="2669" dy="1931" grid="1" gridSize="10" guides="1" tooltips="1" connect="1" arrows="1" fold="1" page="0" pageScale="1" pageWidth="850" pageHeight="1100" background="#FFFFFF" math="0" shadow="0">
      <root>
        <mxCell id="0" />
        <mxCell id="1" parent="0" />
        <mxCell id="1I0GDtb_JJz8oe6sHbkE-1" value="&lt;font size=&quot;1&quot; style=&quot;&quot;&gt;&lt;b style=&quot;font-size: 21px;&quot;&gt;&lt;u&gt;BOOKSTORE&amp;nbsp; MANAGEMENT APIS&lt;/u&gt;&lt;/b&gt;&lt;/font&gt;" style="text;html=1;align=center;verticalAlign=middle;whiteSpace=wrap;rounded=0;" vertex="1" parent="1">
          <mxGeometry x="60" y="-790" width="390" height="120" as="geometry" />
        </mxCell>
        <mxCell id="1I0GDtb_JJz8oe6sHbkE-3" value="&lt;div style=&quot;text-align: left;&quot;&gt;&lt;span style=&quot;background-color: initial;&quot;&gt;1.Database -Mysql&lt;/span&gt;&lt;/div&gt;&lt;div style=&quot;text-align: left;&quot;&gt;&lt;span style=&quot;background-color: initial;&quot;&gt;2.GORM&lt;/span&gt;&lt;/div&gt;&lt;div style=&quot;text-align: left;&quot;&gt;&lt;span style=&quot;background-color: initial;&quot;&gt;3.Json marshall,unmarshall&lt;/span&gt;&lt;/div&gt;&lt;div style=&quot;text-align: left;&quot;&gt;&lt;span style=&quot;background-color: initial;&quot;&gt;4.Project structure&lt;/span&gt;&lt;/div&gt;&lt;div style=&quot;text-align: left;&quot;&gt;&lt;span style=&quot;background-color: initial;&quot;&gt;5.Gorilla Mux&lt;/span&gt;&lt;/div&gt;" style="text;html=1;strokeColor=none;fillColor=none;align=center;verticalAlign=middle;whiteSpace=wrap;rounded=0;fontSize=18;" vertex="1" parent="1">
          <mxGeometry x="-40" y="-680" width="460" height="100" as="geometry" />
        </mxCell>
        <mxCell id="1I0GDtb_JJz8oe6sHbkE-4" value="" style="rounded=0;whiteSpace=wrap;html=1;fontSize=21;" vertex="1" parent="1">
          <mxGeometry x="-210" y="-440" width="120" height="60" as="geometry" />
        </mxCell>
        <mxCell id="1I0GDtb_JJz8oe6sHbkE-8" value="" style="edgeStyle=orthogonalEdgeStyle;rounded=0;orthogonalLoop=1;jettySize=auto;html=1;fontSize=21;" edge="1" parent="1" source="1I0GDtb_JJz8oe6sHbkE-5" target="1I0GDtb_JJz8oe6sHbkE-7">
          <mxGeometry relative="1" as="geometry" />
        </mxCell>
        <mxCell id="1I0GDtb_JJz8oe6sHbkE-5" value="CMD" style="text;html=1;strokeColor=none;fillColor=none;align=center;verticalAlign=middle;whiteSpace=wrap;rounded=0;fontSize=21;" vertex="1" parent="1">
          <mxGeometry x="-180" y="-425" width="60" height="30" as="geometry" />
        </mxCell>
        <mxCell id="1I0GDtb_JJz8oe6sHbkE-7" value="" style="whiteSpace=wrap;html=1;fontSize=21;direction=west;" vertex="1" parent="1">
          <mxGeometry x="-210" y="-310" width="120" height="60" as="geometry" />
        </mxCell>
        <mxCell id="1I0GDtb_JJz8oe6sHbkE-9" value="main.go" style="text;html=1;strokeColor=none;fillColor=none;align=center;verticalAlign=middle;whiteSpace=wrap;rounded=0;fontSize=21;" vertex="1" parent="1">
          <mxGeometry x="-180" y="-295" width="60" height="30" as="geometry" />
        </mxCell>
        <mxCell id="1I0GDtb_JJz8oe6sHbkE-19" value="" style="edgeStyle=orthogonalEdgeStyle;rounded=0;orthogonalLoop=1;jettySize=auto;html=1;fontSize=21;" edge="1" parent="1" source="1I0GDtb_JJz8oe6sHbkE-10" target="1I0GDtb_JJz8oe6sHbkE-18">
          <mxGeometry relative="1" as="geometry" />
        </mxCell>
        <mxCell id="1I0GDtb_JJz8oe6sHbkE-26" value="" style="edgeStyle=orthogonalEdgeStyle;rounded=0;orthogonalLoop=1;jettySize=auto;html=1;fontSize=21;entryX=0.5;entryY=0;entryDx=0;entryDy=0;" edge="1" parent="1" source="1I0GDtb_JJz8oe6sHbkE-10" target="1I0GDtb_JJz8oe6sHbkE-25">
          <mxGeometry relative="1" as="geometry">
            <Array as="points" />
          </mxGeometry>
        </mxCell>
        <mxCell id="1I0GDtb_JJz8oe6sHbkE-28" value="" style="edgeStyle=orthogonalEdgeStyle;rounded=0;orthogonalLoop=1;jettySize=auto;html=1;fontSize=21;" edge="1" parent="1" source="1I0GDtb_JJz8oe6sHbkE-10" target="1I0GDtb_JJz8oe6sHbkE-27">
          <mxGeometry relative="1" as="geometry" />
        </mxCell>
        <mxCell id="1I0GDtb_JJz8oe6sHbkE-31" value="" style="edgeStyle=orthogonalEdgeStyle;rounded=0;orthogonalLoop=1;jettySize=auto;html=1;fontSize=21;" edge="1" parent="1" source="1I0GDtb_JJz8oe6sHbkE-10" target="1I0GDtb_JJz8oe6sHbkE-30">
          <mxGeometry relative="1" as="geometry" />
        </mxCell>
        <mxCell id="1I0GDtb_JJz8oe6sHbkE-10" value="PKG" style="rounded=1;whiteSpace=wrap;html=1;fontSize=21;" vertex="1" parent="1">
          <mxGeometry x="280" y="-470" width="120" height="60" as="geometry" />
        </mxCell>
        <mxCell id="1I0GDtb_JJz8oe6sHbkE-13" value="" style="edgeStyle=orthogonalEdgeStyle;rounded=0;orthogonalLoop=1;jettySize=auto;html=1;fontSize=21;" edge="1" parent="1" target="1I0GDtb_JJz8oe6sHbkE-12">
          <mxGeometry relative="1" as="geometry">
            <mxPoint x="230" y="-440" as="sourcePoint" />
          </mxGeometry>
        </mxCell>
        <mxCell id="1I0GDtb_JJz8oe6sHbkE-44" value="" style="edgeStyle=orthogonalEdgeStyle;rounded=0;orthogonalLoop=1;jettySize=auto;html=1;fontSize=21;" edge="1" parent="1" source="1I0GDtb_JJz8oe6sHbkE-12" target="1I0GDtb_JJz8oe6sHbkE-43">
          <mxGeometry relative="1" as="geometry" />
        </mxCell>
        <mxCell id="1I0GDtb_JJz8oe6sHbkE-12" value="" style="whiteSpace=wrap;html=1;fontSize=21;" vertex="1" parent="1">
          <mxGeometry x="170" y="-310" width="120" height="60" as="geometry" />
        </mxCell>
        <mxCell id="1I0GDtb_JJz8oe6sHbkE-14" value="controllers" style="text;html=1;strokeColor=none;fillColor=none;align=center;verticalAlign=middle;whiteSpace=wrap;rounded=0;fontSize=21;" vertex="1" parent="1">
          <mxGeometry x="200" y="-295" width="60" height="30" as="geometry" />
        </mxCell>
        <mxCell id="1I0GDtb_JJz8oe6sHbkE-18" value="" style="rounded=1;whiteSpace=wrap;html=1;fontSize=21;" vertex="1" parent="1">
          <mxGeometry y="-310" width="120" height="60" as="geometry" />
        </mxCell>
        <mxCell id="1I0GDtb_JJz8oe6sHbkE-42" value="" style="edgeStyle=orthogonalEdgeStyle;rounded=0;orthogonalLoop=1;jettySize=auto;html=1;fontSize=21;" edge="1" parent="1" source="1I0GDtb_JJz8oe6sHbkE-24" target="1I0GDtb_JJz8oe6sHbkE-41">
          <mxGeometry relative="1" as="geometry" />
        </mxCell>
        <mxCell id="1I0GDtb_JJz8oe6sHbkE-24" value="config&lt;br&gt;" style="text;html=1;strokeColor=none;fillColor=none;align=center;verticalAlign=middle;whiteSpace=wrap;rounded=0;fontSize=21;" vertex="1" parent="1">
          <mxGeometry x="30" y="-295" width="60" height="30" as="geometry" />
        </mxCell>
        <mxCell id="1I0GDtb_JJz8oe6sHbkE-46" value="" style="edgeStyle=orthogonalEdgeStyle;rounded=0;orthogonalLoop=1;jettySize=auto;html=1;fontSize=21;" edge="1" parent="1" source="1I0GDtb_JJz8oe6sHbkE-25" target="1I0GDtb_JJz8oe6sHbkE-45">
          <mxGeometry relative="1" as="geometry" />
        </mxCell>
        <mxCell id="1I0GDtb_JJz8oe6sHbkE-25" value="models" style="whiteSpace=wrap;html=1;fontSize=21;rounded=1;" vertex="1" parent="1">
          <mxGeometry x="340" y="-310" width="120" height="60" as="geometry" />
        </mxCell>
        <mxCell id="1I0GDtb_JJz8oe6sHbkE-48" value="" style="edgeStyle=orthogonalEdgeStyle;rounded=0;orthogonalLoop=1;jettySize=auto;html=1;fontSize=21;" edge="1" parent="1" source="1I0GDtb_JJz8oe6sHbkE-27" target="1I0GDtb_JJz8oe6sHbkE-47">
          <mxGeometry relative="1" as="geometry" />
        </mxCell>
        <mxCell id="1I0GDtb_JJz8oe6sHbkE-27" value="routes" style="whiteSpace=wrap;html=1;fontSize=21;rounded=1;" vertex="1" parent="1">
          <mxGeometry x="510" y="-310" width="120" height="60" as="geometry" />
        </mxCell>
        <mxCell id="1I0GDtb_JJz8oe6sHbkE-50" value="" style="edgeStyle=orthogonalEdgeStyle;rounded=0;orthogonalLoop=1;jettySize=auto;html=1;fontSize=21;" edge="1" parent="1" source="1I0GDtb_JJz8oe6sHbkE-30" target="1I0GDtb_JJz8oe6sHbkE-49">
          <mxGeometry relative="1" as="geometry" />
        </mxCell>
        <mxCell id="1I0GDtb_JJz8oe6sHbkE-30" value="utils" style="whiteSpace=wrap;html=1;fontSize=21;rounded=1;" vertex="1" parent="1">
          <mxGeometry x="680" y="-310" width="120" height="60" as="geometry" />
        </mxCell>
        <mxCell id="1I0GDtb_JJz8oe6sHbkE-41" value="APP.GO" style="whiteSpace=wrap;html=1;fontSize=21;" vertex="1" parent="1">
          <mxGeometry y="-200" width="120" height="60" as="geometry" />
        </mxCell>
        <mxCell id="1I0GDtb_JJz8oe6sHbkE-43" value="Book Controller" style="whiteSpace=wrap;html=1;fontSize=21;" vertex="1" parent="1">
          <mxGeometry x="170" y="-200" width="120" height="60" as="geometry" />
        </mxCell>
        <mxCell id="1I0GDtb_JJz8oe6sHbkE-45" value="BOOK.GO" style="whiteSpace=wrap;html=1;fontSize=21;rounded=1;" vertex="1" parent="1">
          <mxGeometry x="340" y="-200" width="120" height="60" as="geometry" />
        </mxCell>
        <mxCell id="1I0GDtb_JJz8oe6sHbkE-47" value="BOOKSTORE&lt;br&gt;Route" style="whiteSpace=wrap;html=1;fontSize=21;rounded=1;" vertex="1" parent="1">
          <mxGeometry x="500" y="-197.5" width="140" height="55" as="geometry" />
        </mxCell>
        <mxCell id="1I0GDtb_JJz8oe6sHbkE-49" value="UTILS.GO" style="whiteSpace=wrap;html=1;fontSize=21;rounded=1;" vertex="1" parent="1">
          <mxGeometry x="680" y="-202.5" width="120" height="60" as="geometry" />
        </mxCell>
        <mxCell id="1I0GDtb_JJz8oe6sHbkE-51" value="&lt;h1&gt;Controller function&lt;/h1&gt;" style="text;html=1;strokeColor=none;fillColor=none;spacing=5;spacingTop=-20;whiteSpace=wrap;overflow=hidden;rounded=0;fontSize=21;" vertex="1" parent="1">
          <mxGeometry x="50" y="-70" width="440" height="90" as="geometry" />
        </mxCell>
        <mxCell id="1I0GDtb_JJz8oe6sHbkE-54" value="" style="edgeStyle=orthogonalEdgeStyle;rounded=0;orthogonalLoop=1;jettySize=auto;html=1;fontSize=21;" edge="1" parent="1" source="1I0GDtb_JJz8oe6sHbkE-52" target="1I0GDtb_JJz8oe6sHbkE-53">
          <mxGeometry relative="1" as="geometry" />
        </mxCell>
        <mxCell id="1I0GDtb_JJz8oe6sHbkE-52" value="&lt;font style=&quot;font-size: 18px;&quot;&gt;UPDATE BOOK&lt;/font&gt;" style="rounded=1;whiteSpace=wrap;html=1;fontSize=21;" vertex="1" parent="1">
          <mxGeometry x="-60" y="420" width="120" height="60" as="geometry" />
        </mxCell>
        <mxCell id="1I0GDtb_JJz8oe6sHbkE-56" value="" style="edgeStyle=orthogonalEdgeStyle;rounded=0;orthogonalLoop=1;jettySize=auto;html=1;fontSize=21;" edge="1" parent="1" source="1I0GDtb_JJz8oe6sHbkE-53" target="1I0GDtb_JJz8oe6sHbkE-55">
          <mxGeometry relative="1" as="geometry" />
        </mxCell>
        <mxCell id="1I0GDtb_JJz8oe6sHbkE-53" value="/book/{book:id}" style="whiteSpace=wrap;html=1;fontSize=21;rounded=1;" vertex="1" parent="1">
          <mxGeometry x="140" y="420" width="160" height="60" as="geometry" />
        </mxCell>
        <mxCell id="1I0GDtb_JJz8oe6sHbkE-55" value="PUT" style="whiteSpace=wrap;html=1;fontSize=21;rounded=1;" vertex="1" parent="1">
          <mxGeometry x="340" y="420" width="120" height="60" as="geometry" />
        </mxCell>
        <mxCell id="1I0GDtb_JJz8oe6sHbkE-58" value="" style="edgeStyle=orthogonalEdgeStyle;rounded=0;orthogonalLoop=1;jettySize=auto;html=1;fontSize=21;" edge="1" parent="1" source="1I0GDtb_JJz8oe6sHbkE-59" target="1I0GDtb_JJz8oe6sHbkE-61">
          <mxGeometry relative="1" as="geometry" />
        </mxCell>
        <mxCell id="1I0GDtb_JJz8oe6sHbkE-59" value="GetBooks" style="rounded=1;whiteSpace=wrap;html=1;fontSize=21;" vertex="1" parent="1">
          <mxGeometry x="-60" y="80" width="120" height="60" as="geometry" />
        </mxCell>
        <mxCell id="1I0GDtb_JJz8oe6sHbkE-60" value="" style="edgeStyle=orthogonalEdgeStyle;rounded=0;orthogonalLoop=1;jettySize=auto;html=1;fontSize=21;" edge="1" parent="1" source="1I0GDtb_JJz8oe6sHbkE-61" target="1I0GDtb_JJz8oe6sHbkE-62">
          <mxGeometry relative="1" as="geometry" />
        </mxCell>
        <mxCell id="1I0GDtb_JJz8oe6sHbkE-61" value="/book/" style="whiteSpace=wrap;html=1;fontSize=21;rounded=1;" vertex="1" parent="1">
          <mxGeometry x="140" y="80" width="120" height="60" as="geometry" />
        </mxCell>
        <mxCell id="1I0GDtb_JJz8oe6sHbkE-62" value="post" style="whiteSpace=wrap;html=1;fontSize=21;rounded=1;" vertex="1" parent="1">
          <mxGeometry x="340" y="80" width="120" height="60" as="geometry" />
        </mxCell>
        <mxCell id="1I0GDtb_JJz8oe6sHbkE-63" value="" style="edgeStyle=orthogonalEdgeStyle;rounded=0;orthogonalLoop=1;jettySize=auto;html=1;fontSize=21;" edge="1" parent="1" source="1I0GDtb_JJz8oe6sHbkE-64" target="1I0GDtb_JJz8oe6sHbkE-66">
          <mxGeometry relative="1" as="geometry" />
        </mxCell>
        <mxCell id="1I0GDtb_JJz8oe6sHbkE-64" value="Delete Books" style="rounded=1;whiteSpace=wrap;html=1;fontSize=21;" vertex="1" parent="1">
          <mxGeometry x="-50" y="530" width="120" height="60" as="geometry" />
        </mxCell>
        <mxCell id="1I0GDtb_JJz8oe6sHbkE-65" value="" style="edgeStyle=orthogonalEdgeStyle;rounded=0;orthogonalLoop=1;jettySize=auto;html=1;fontSize=21;" edge="1" parent="1" source="1I0GDtb_JJz8oe6sHbkE-66" target="1I0GDtb_JJz8oe6sHbkE-67">
          <mxGeometry relative="1" as="geometry" />
        </mxCell>
        <mxCell id="1I0GDtb_JJz8oe6sHbkE-66" value="/book/{book:id}" style="whiteSpace=wrap;html=1;fontSize=21;rounded=1;" vertex="1" parent="1">
          <mxGeometry x="150" y="530" width="160" height="60" as="geometry" />
        </mxCell>
        <mxCell id="1I0GDtb_JJz8oe6sHbkE-67" value="DELETE" style="whiteSpace=wrap;html=1;fontSize=21;rounded=1;" vertex="1" parent="1">
          <mxGeometry x="350" y="530" width="120" height="60" as="geometry" />
        </mxCell>
        <mxCell id="1I0GDtb_JJz8oe6sHbkE-68" value="" style="edgeStyle=orthogonalEdgeStyle;rounded=0;orthogonalLoop=1;jettySize=auto;html=1;fontSize=21;" edge="1" parent="1" source="1I0GDtb_JJz8oe6sHbkE-69" target="1I0GDtb_JJz8oe6sHbkE-71">
          <mxGeometry relative="1" as="geometry" />
        </mxCell>
        <mxCell id="1I0GDtb_JJz8oe6sHbkE-69" value="&lt;font style=&quot;font-size: 20px;&quot;&gt;CREATE BOOK&lt;/font&gt;" style="rounded=1;whiteSpace=wrap;html=1;fontSize=21;" vertex="1" parent="1">
          <mxGeometry x="-60" y="190" width="120" height="60" as="geometry" />
        </mxCell>
        <mxCell id="1I0GDtb_JJz8oe6sHbkE-70" value="" style="edgeStyle=orthogonalEdgeStyle;rounded=0;orthogonalLoop=1;jettySize=auto;html=1;fontSize=21;" edge="1" parent="1" source="1I0GDtb_JJz8oe6sHbkE-71" target="1I0GDtb_JJz8oe6sHbkE-72">
          <mxGeometry relative="1" as="geometry" />
        </mxCell>
        <mxCell id="1I0GDtb_JJz8oe6sHbkE-71" value="/book/{book:id}" style="whiteSpace=wrap;html=1;fontSize=21;rounded=1;" vertex="1" parent="1">
          <mxGeometry x="140" y="190" width="150" height="60" as="geometry" />
        </mxCell>
        <mxCell id="1I0GDtb_JJz8oe6sHbkE-72" value="GET" style="whiteSpace=wrap;html=1;fontSize=21;rounded=1;" vertex="1" parent="1">
          <mxGeometry x="340" y="190" width="120" height="60" as="geometry" />
        </mxCell>
        <mxCell id="1I0GDtb_JJz8oe6sHbkE-73" value="" style="edgeStyle=orthogonalEdgeStyle;rounded=0;orthogonalLoop=1;jettySize=auto;html=1;fontSize=21;" edge="1" parent="1" source="1I0GDtb_JJz8oe6sHbkE-74" target="1I0GDtb_JJz8oe6sHbkE-76">
          <mxGeometry relative="1" as="geometry" />
        </mxCell>
        <mxCell id="1I0GDtb_JJz8oe6sHbkE-74" value="&lt;font style=&quot;font-size: 18px;&quot;&gt;GET BOOK BY ID&lt;/font&gt;" style="rounded=1;whiteSpace=wrap;html=1;fontSize=21;" vertex="1" parent="1">
          <mxGeometry x="-60" y="310" width="120" height="60" as="geometry" />
        </mxCell>
        <mxCell id="1I0GDtb_JJz8oe6sHbkE-75" value="" style="edgeStyle=orthogonalEdgeStyle;rounded=0;orthogonalLoop=1;jettySize=auto;html=1;fontSize=21;" edge="1" parent="1" source="1I0GDtb_JJz8oe6sHbkE-76" target="1I0GDtb_JJz8oe6sHbkE-77">
          <mxGeometry relative="1" as="geometry" />
        </mxCell>
        <mxCell id="1I0GDtb_JJz8oe6sHbkE-76" value="/book/{book:id}" style="whiteSpace=wrap;html=1;fontSize=21;rounded=1;" vertex="1" parent="1">
          <mxGeometry x="140" y="310" width="150" height="60" as="geometry" />
        </mxCell>
        <mxCell id="1I0GDtb_JJz8oe6sHbkE-77" value="GET" style="whiteSpace=wrap;html=1;fontSize=21;rounded=1;" vertex="1" parent="1">
          <mxGeometry x="340" y="310" width="120" height="60" as="geometry" />
        </mxCell>
      </root>
    </mxGraphModel>
  </diagram>
</mxfile>
